<svg width="149" height="59" viewBox="0 0 149 59" fill="none" xmlns="http://www.w3.org/2000/svg">
<path d="M40.4792 19.4165C39.3421 19.4165 38.4189 20.3385 38.4189 21.4767V26.6665C38.4193 28.3804 39.0267 30.0388 40.1333 31.3476C41.2399 32.6564 42.7742 33.5309 44.4642 33.8162C44.4803 31.896 45.0708 30.0245 46.1595 28.4428L43.5157 25.7965C43.3556 25.6247 43.2685 25.3975 43.2726 25.1627C43.2768 24.9279 43.3719 24.7039 43.5379 24.5379C43.7039 24.3718 43.9279 24.2767 44.1627 24.2726C44.3975 24.2684 44.6247 24.3556 44.7965 24.5157L47.3268 27.0447C48.748 25.6338 50.5733 24.7004 52.5492 24.3743C52.0675 22.9306 51.1439 21.675 49.9091 20.7852C48.6743 19.8954 47.1909 19.4166 45.6689 19.4165H40.4792ZM47.5443 39.2175L44.724 42.0353C44.6374 42.1189 44.5683 42.2188 44.5208 42.3294C44.4733 42.4399 44.4482 42.5588 44.4471 42.6791C44.446 42.7995 44.4689 42.9188 44.5144 43.0302C44.5599 43.1416 44.6271 43.2428 44.7122 43.328C44.7972 43.4131 44.8984 43.4804 45.0097 43.526C45.1211 43.5717 45.2404 43.5947 45.3608 43.5937C45.4811 43.5927 45.6 43.5677 45.7106 43.5203C45.8212 43.4728 45.9212 43.4039 46.0049 43.3173L48.8263 40.4983C50.0688 41.499 51.5691 42.1278 53.1538 42.3121C54.7385 42.4964 56.343 42.2288 57.782 41.54C59.221 40.8513 60.4359 39.7695 61.2863 38.4197C62.1367 37.0699 62.588 35.507 62.588 33.9117V27.5703C62.588 27.0095 62.3652 26.4717 61.9687 26.0751C61.5721 25.6785 61.0343 25.4558 60.4734 25.4558H54.1297C52.5344 25.456 50.9718 25.9074 49.6221 26.7579C48.2725 27.6084 47.1909 28.8233 46.5023 30.2623C45.8137 31.7013 45.5461 33.3057 45.7305 34.8903C45.9149 36.4749 46.5437 37.975 47.5443 39.2175ZM55.0674 34.2609L50.1192 39.209C49.6357 38.8423 49.2044 38.4114 48.8372 37.9282L53.7853 32.9788C53.9553 32.8088 54.1859 32.7133 54.4263 32.7133C54.6668 32.7133 54.8974 32.8088 55.0674 32.9788C55.2374 33.1488 55.3329 33.3794 55.3329 33.6199C55.3329 33.8603 55.2374 34.0909 55.0674 34.2609Z" fill="#008000"/>
<path d="M2.27557 40V13.8182H19.6108V18.3821H7.81108V24.6207H18.4602V29.1847H7.81108V40H2.27557Z" fill="#008000"/>
<path d="M25.7727 40.3707C24.5199 40.3707 23.4034 40.1534 22.4233 39.7188C21.4432 39.2756 20.6676 38.6236 20.0966 37.7628C19.5341 36.8935 19.2528 35.8111 19.2528 34.5156C19.2528 33.4247 19.4531 32.5085 19.8537 31.767C20.2543 31.0256 20.7997 30.429 21.4901 29.9773C22.1804 29.5256 22.9645 29.1847 23.8423 28.9545C24.7287 28.7244 25.6577 28.5625 26.6293 28.4688C27.7713 28.3494 28.6918 28.2386 29.3906 28.1364C30.0895 28.0256 30.5966 27.8636 30.9119 27.6506C31.2273 27.4375 31.3849 27.1222 31.3849 26.7045V26.6278C31.3849 25.8182 31.1293 25.1918 30.6179 24.7486C30.1151 24.3054 29.3991 24.0838 28.4702 24.0838C27.4901 24.0838 26.7102 24.3011 26.1307 24.7358C25.5511 25.1619 25.1676 25.6989 24.9801 26.3466L19.9432 25.9375C20.1989 24.7443 20.7017 23.7131 21.4517 22.8438C22.2017 21.9659 23.169 21.2926 24.3537 20.8239C25.5469 20.3466 26.9276 20.108 28.4957 20.108C29.5866 20.108 30.6307 20.2358 31.6278 20.4915C32.6335 20.7472 33.5241 21.1435 34.2997 21.6804C35.0838 22.2173 35.7017 22.9077 36.1534 23.7514C36.6051 24.5866 36.831 25.5881 36.831 26.7557V40H31.6662V37.277H31.5128C31.1974 37.8906 30.7756 38.4318 30.2472 38.9006C29.7188 39.3608 29.0838 39.723 28.3423 39.9872C27.6009 40.2429 26.7443 40.3707 25.7727 40.3707ZM27.3324 36.6122C28.1335 36.6122 28.8409 36.4545 29.4545 36.1392C30.0682 35.8153 30.5497 35.3807 30.8991 34.8352C31.2486 34.2898 31.4233 33.6719 31.4233 32.9815V30.8977C31.2528 31.0085 31.0185 31.1108 30.7202 31.2045C30.4304 31.2898 30.1023 31.3707 29.7358 31.4474C29.3693 31.5156 29.0028 31.5795 28.6364 31.6392C28.2699 31.6903 27.9375 31.7372 27.6392 31.7798C27 31.8736 26.4418 32.0227 25.9645 32.2273C25.4872 32.4318 25.1165 32.7088 24.8523 33.0582C24.5881 33.3991 24.456 33.8253 24.456 34.3366C24.456 35.0781 24.7244 35.6449 25.2614 36.0369C25.8068 36.4205 26.4972 36.6122 27.3324 36.6122Z" fill="black"/>
<path d="M66.1186 54V43.8182H69.7479C70.54 43.8182 71.1963 43.9624 71.7166 44.2507C72.237 44.5391 72.6264 44.9335 72.8849 45.4339C73.1435 45.9311 73.2727 46.4912 73.2727 47.1143C73.2727 47.7408 73.1418 48.3042 72.88 48.8047C72.6214 49.3018 72.2304 49.6963 71.7067 49.9879C71.1863 50.2763 70.5317 50.4205 69.7429 50.4205H67.2472V49.1179H69.6037C70.1042 49.1179 70.5102 49.0317 70.8217 48.8594C71.1333 48.6837 71.362 48.4451 71.5078 48.1435C71.6536 47.8419 71.7266 47.4988 71.7266 47.1143C71.7266 46.7299 71.6536 46.3885 71.5078 46.0902C71.362 45.7919 71.1316 45.5582 70.8168 45.3892C70.5052 45.2202 70.0942 45.1357 69.5838 45.1357H67.6548V54H66.1186Z" fill="#1FFB1F"/>
<path d="M76.2869 43.8182V54H74.8004V43.8182H76.2869ZM80.355 54.169C79.8711 54.169 79.4336 54.0795 79.0425 53.9006C78.6514 53.7183 78.3415 53.4548 78.1128 53.1101C77.8874 52.7654 77.7747 52.3428 77.7747 51.8423C77.7747 51.4115 77.8576 51.0568 78.0233 50.7784C78.189 50.5 78.4128 50.2796 78.6945 50.1172C78.9762 49.9548 79.2911 49.8321 79.6391 49.7493C79.9871 49.6664 80.3417 49.6035 80.703 49.5604C81.1604 49.5073 81.5316 49.4643 81.8166 49.4311C82.1017 49.3946 82.3088 49.3366 82.4381 49.2571C82.5674 49.1776 82.632 49.0483 82.632 48.8693V48.8345C82.632 48.4003 82.5094 48.0639 82.2641 47.8253C82.0221 47.5866 81.6609 47.4673 81.1803 47.4673C80.6798 47.4673 80.2854 47.5784 79.997 47.8004C79.712 48.0192 79.5148 48.2628 79.4054 48.5312L78.0084 48.2131C78.1741 47.7491 78.4161 47.3745 78.7343 47.0895C79.0558 46.8011 79.4253 46.5923 79.8429 46.4631C80.2605 46.3305 80.6997 46.2642 81.1604 46.2642C81.4653 46.2642 81.7885 46.3007 82.1299 46.3736C82.4746 46.4432 82.796 46.5724 83.0943 46.7614C83.396 46.9503 83.6429 47.2204 83.8351 47.5717C84.0273 47.9197 84.1235 48.3722 84.1235 48.929V54H82.6718V52.956H82.6121C82.516 53.1482 82.3718 53.3371 82.1796 53.5227C81.9873 53.7083 81.7404 53.8625 81.4388 53.9851C81.1372 54.1077 80.7759 54.169 80.355 54.169ZM80.6782 52.9759C81.0891 52.9759 81.4405 52.8946 81.7321 52.7322C82.0271 52.5698 82.2508 52.3577 82.4033 52.0959C82.5591 51.8307 82.637 51.5473 82.637 51.2457V50.2614C82.5839 50.3144 82.4812 50.3641 82.3287 50.4105C82.1796 50.4536 82.0089 50.4917 81.8166 50.5249C81.6244 50.5547 81.4371 50.5829 81.2549 50.6094C81.0726 50.6326 80.9201 50.6525 80.7975 50.669C80.5091 50.7055 80.2456 50.7668 80.007 50.853C79.7717 50.9392 79.5827 51.0634 79.4402 51.2259C79.301 51.3849 79.2314 51.5971 79.2314 51.8622C79.2314 52.2301 79.3673 52.5085 79.6391 52.6974C79.9109 52.883 80.2572 52.9759 80.6782 52.9759ZM89.166 54.1541C88.4269 54.1541 87.7905 53.9867 87.2569 53.652C86.7266 53.3139 86.319 52.8482 86.0339 52.255C85.7489 51.6617 85.6064 50.9822 85.6064 50.2166C85.6064 49.4411 85.7522 48.7566 86.0439 48.1634C86.3355 47.5668 86.7465 47.1011 87.2768 46.7663C87.8071 46.4316 88.4319 46.2642 89.1511 46.2642C89.7311 46.2642 90.2482 46.3719 90.7022 46.5874C91.1563 46.7995 91.5226 47.0978 91.801 47.4822C92.0827 47.8667 92.2501 48.3158 92.3031 48.8295H90.8564C90.7768 48.4716 90.5945 48.1634 90.3095 47.9048C90.0278 47.6463 89.6499 47.517 89.176 47.517C88.7617 47.517 88.3987 47.6264 88.0872 47.8452C87.7789 48.0606 87.5387 48.3688 87.3663 48.7699C87.194 49.1676 87.1078 49.6383 87.1078 50.1818C87.1078 50.7386 87.1923 51.2192 87.3613 51.6236C87.5304 52.0279 87.769 52.3411 88.0772 52.5632C88.3888 52.7853 88.755 52.8963 89.176 52.8963C89.4577 52.8963 89.7129 52.8449 89.9416 52.7422C90.1736 52.6361 90.3675 52.4853 90.5233 52.2898C90.6824 52.0942 90.7934 51.8589 90.8564 51.5838H92.3031C92.2501 52.0777 92.0893 52.5185 91.8208 52.9062C91.5524 53.294 91.1928 53.599 90.742 53.821C90.2946 54.0431 89.7692 54.1541 89.166 54.1541ZM97.03 54.1541C96.2776 54.1541 95.6296 53.9934 95.0861 53.6719C94.5458 53.3471 94.1282 52.8913 93.8332 52.3047C93.5416 51.7147 93.3957 51.0237 93.3957 50.2315C93.3957 49.4493 93.5416 48.7599 93.8332 48.1634C94.1282 47.5668 94.5392 47.1011 95.0662 46.7663C95.5965 46.4316 96.2163 46.2642 96.9255 46.2642C97.3564 46.2642 97.774 46.3355 98.1784 46.478C98.5827 46.6205 98.9457 46.8442 99.2672 47.1491C99.5887 47.4541 99.8422 47.8501 100.028 48.3374C100.213 48.8213 100.306 49.4096 100.306 50.1023V50.6293H94.2359V49.5156H98.8496C98.8496 49.1245 98.77 48.7782 98.6109 48.4766C98.4518 48.1716 98.2281 47.9313 97.9398 47.7557C97.6547 47.58 97.32 47.4922 96.9355 47.4922C96.5179 47.4922 96.1533 47.5949 95.8417 47.8004C95.5335 48.0026 95.2949 48.2678 95.1258 48.5959C94.9601 48.9207 94.8773 49.2737 94.8773 49.6548V50.5249C94.8773 51.0353 94.9667 51.4695 95.1457 51.8274C95.328 52.1854 95.5816 52.4588 95.9064 52.6477C96.2312 52.8333 96.6107 52.9261 97.0449 52.9261C97.3266 52.9261 97.5835 52.8864 97.8155 52.8068C98.0475 52.724 98.248 52.6013 98.417 52.4389C98.5861 52.2765 98.7153 52.076 98.8048 51.8374L100.212 52.0909C100.099 52.5052 99.8969 52.8681 99.6052 53.1797C99.3169 53.4879 98.954 53.7282 98.5165 53.9006C98.0823 54.0696 97.5868 54.1541 97.03 54.1541Z" fill="black"/>
<path d="M65.1733 40V20.3636H70.3636V23.8281H70.5938C71.0028 22.6776 71.6847 21.7699 72.6392 21.1051C73.5938 20.4403 74.7358 20.108 76.0653 20.108C77.4119 20.108 78.5582 20.4446 79.5043 21.1179C80.4503 21.7827 81.081 22.6861 81.3963 23.8281H81.6009C82.0014 22.7031 82.7259 21.804 83.7741 21.1307C84.831 20.4489 86.0795 20.108 87.5199 20.108C89.3523 20.108 90.8395 20.6918 91.9815 21.8594C93.1321 23.0185 93.7074 24.6634 93.7074 26.794V40H88.2741V27.8679C88.2741 26.777 87.9844 25.9588 87.4048 25.4134C86.8253 24.8679 86.1009 24.5952 85.2315 24.5952C84.2429 24.5952 83.4716 24.9105 82.9176 25.5412C82.3636 26.1634 82.0866 26.9858 82.0866 28.0085V40H76.8068V27.7528C76.8068 26.7898 76.5298 26.0227 75.9759 25.4517C75.4304 24.8807 74.7102 24.5952 73.8153 24.5952C73.2102 24.5952 72.6648 24.7486 72.179 25.0554C71.7017 25.3537 71.3224 25.7756 71.0412 26.321C70.7599 26.858 70.6193 27.4886 70.6193 28.2131V40H65.1733Z" fill="black"/>
<path d="M103.122 40.3835C101.102 40.3835 99.3636 39.9744 97.9062 39.1562C96.4574 38.3295 95.3409 37.1619 94.5568 35.6534C93.7727 34.1364 93.3807 32.3423 93.3807 30.2713C93.3807 28.2514 93.7727 26.4787 94.5568 24.9531C95.3409 23.4276 96.4446 22.2386 97.8679 21.3864C99.2997 20.5341 100.979 20.108 102.905 20.108C104.2 20.108 105.406 20.3168 106.523 20.7344C107.648 21.1435 108.628 21.7614 109.463 22.5881C110.307 23.4148 110.963 24.4545 111.432 25.7074C111.901 26.9517 112.135 28.4091 112.135 30.0795V31.5753H95.554V28.2003H107.009C107.009 27.4162 106.838 26.7216 106.497 26.1165C106.156 25.5114 105.683 25.0384 105.078 24.6974C104.482 24.348 103.787 24.1733 102.994 24.1733C102.168 24.1733 101.435 24.3651 100.795 24.7486C100.165 25.1236 99.6705 25.6307 99.3125 26.2699C98.9545 26.9006 98.7713 27.6037 98.7628 28.3793V31.5881C98.7628 32.5597 98.9418 33.3991 99.2997 34.1065C99.6662 34.8139 100.182 35.3594 100.847 35.7429C101.511 36.1264 102.3 36.3182 103.212 36.3182C103.817 36.3182 104.371 36.233 104.874 36.0625C105.376 35.892 105.807 35.6364 106.165 35.2955C106.523 34.9545 106.795 34.5369 106.983 34.0426L112.02 34.375C111.764 35.5852 111.24 36.642 110.447 37.5455C109.663 38.4403 108.649 39.1392 107.405 39.642C106.169 40.1364 104.741 40.3835 103.122 40.3835Z" fill="black"/>
<path d="M112.173 40V20.3636H117.453V23.7898H117.658C118.016 22.571 118.616 21.6506 119.46 21.0284C120.304 20.3977 121.276 20.0824 122.375 20.0824C122.648 20.0824 122.942 20.0994 123.257 20.1335C123.572 20.1676 123.849 20.2145 124.088 20.2741V25.1065C123.832 25.0298 123.479 24.9616 123.027 24.902C122.575 24.8423 122.162 24.8125 121.787 24.8125C120.986 24.8125 120.27 24.9872 119.639 25.3366C119.017 25.6776 118.523 26.1548 118.156 26.7685C117.798 27.3821 117.619 28.0895 117.619 28.8906V40H112.173Z" fill="black"/>
<path d="M130.011 13.8182V23.7642H126.124V13.8182H130.011Z" fill="#F8F8AB"/>
<path d="M146.511 25.9631L141.526 26.2699C141.44 25.8437 141.257 25.4602 140.976 25.1193C140.695 24.7699 140.324 24.4929 139.864 24.2884C139.412 24.0753 138.871 23.9688 138.24 23.9688C137.396 23.9688 136.685 24.1477 136.105 24.5057C135.526 24.8551 135.236 25.3239 135.236 25.9119C135.236 26.3807 135.423 26.777 135.798 27.1009C136.173 27.4247 136.817 27.6847 137.729 27.8807L141.283 28.5966C143.192 28.9886 144.615 29.6193 145.553 30.4886C146.49 31.358 146.959 32.5 146.959 33.9148C146.959 35.2017 146.58 36.331 145.821 37.3026C145.071 38.2741 144.04 39.0327 142.727 39.5781C141.423 40.1151 139.919 40.3835 138.214 40.3835C135.615 40.3835 133.544 39.8423 132.001 38.7599C130.467 37.669 129.568 36.1861 129.304 34.3111L134.661 34.0298C134.822 34.8224 135.214 35.4276 135.837 35.8452C136.459 36.2543 137.256 36.4588 138.227 36.4588C139.182 36.4588 139.949 36.2756 140.528 35.9091C141.116 35.5341 141.415 35.0526 141.423 34.4645C141.415 33.9702 141.206 33.5653 140.797 33.25C140.388 32.9261 139.757 32.679 138.905 32.5085L135.504 31.831C133.587 31.4474 132.159 30.7827 131.222 29.8366C130.293 28.8906 129.828 27.6847 129.828 26.2188C129.828 24.9574 130.169 23.8707 130.851 22.9588C131.541 22.0469 132.509 21.3438 133.753 20.8494C135.006 20.3551 136.472 20.108 138.151 20.108C140.631 20.108 142.582 20.6321 144.006 21.6804C145.438 22.7287 146.273 24.1562 146.511 25.9631Z" fill="black"/>
</svg>
